HIERARCHY
ROOT hip
{
  OFFSET 0.0 0.0 0.0
  CHANNELS 6 Xposition Yposition Zposition Zrotation Yrotation Xrotation
  JOINT torso
  {
    OFFSET 0.0 0.0 0.0
    CHANNELS 3 Zrotation Xrotation Yrotation
    JOINT neck
    {
      OFFSET -8.059630999999968 325.56260699999996 64.6221310000002
      CHANNELS 3 Zrotation Xrotation Yrotation
      JOINT head
      {
        OFFSET 34.685424000000125 375.1179809999999 232.79357900000002
        CHANNELS 3 Zrotation Xrotation Yrotation
        End Site
        {
          OFFSET 0.0 0.0 0.0
        }
      }
    }
    JOINT left_collar
    {
      OFFSET -8.059630999999968 325.56260699999996 64.6221310000002
      CHANNELS 3 Zrotation Xrotation Yrotation
      JOINT left_upper_arm
      {
        OFFSET -124.124665 -15.370300999999927 25.582641999999964
        CHANNELS 3 Zrotation Xrotation Yrotation
        JOINT left_forearm
        {
          OFFSET -268.19913399999996 105.06054699999993 114.74548300000004
          CHANNELS 3 Zrotation Xrotation Yrotation
          JOINT left_hand
          {
            OFFSET -235.82003099999991 -10.198180999999977 -38.67455999999993
            CHANNELS 3 Zrotation Xrotation Yrotation
            End Site
            {
              OFFSET 0.0 0.0 0.0
            }
          }
        }
      }
    }
    JOINT right_collar
    {
      OFFSET -8.059630999999968 325.56260699999996 64.6221310000002
      CHANNELS 3 Zrotation Xrotation Yrotation
      JOINT right_upper_arm
      {
        OFFSET 162.73931899999997 -2.8598030000000563 26.244994999999903
        CHANNELS 3 Zrotation Xrotation Yrotation
        JOINT right_forearm
        {
          OFFSET 284.6506340000001 103.07031299999994 145.84521499999994
          CHANNELS 3 Zrotation Xrotation Yrotation
          JOINT right_hand
          {
            OFFSET 226.332337 -12.198241999999937 -49.27258299999994
            CHANNELS 3 Zrotation Xrotation Yrotation
            End Site
            {
              OFFSET 0.0 0.0 0.0
            }
          }
        }
      }
    }
  }
}
MOTION
Frames: 9
Frame Time: 0.01
367.28163359002264 219.18908465825336 739.7345837677543 0.0018753564764300843 0.00838690518806746 0.00943416160107122 0.0020431009229912593 0.00036802162360368654 -0.0003964258095634957 0.005241308223069651 0.025154116436719474 -0.005578161615976942 0.0 0.0 0.0 0.000260941743146583 0.0002361516540041336 -0.0014727209031351058 -0.02950930264289068 -0.02374461753783939 -0.028354618331485185 0.0557166038447578 -0.01227693073336657 0.07175254597382176 0.0 0.0 0.0 -0.0007978329184538095 0.0002053488271147605 0.004361858440021875 0.03961884750882031 -0.019673872395326652 -0.0017320846962063177 -0.13040143874680238 -0.03379535732057749 -0.0980963843601327 0.0 0.0 0.0
367.272165765776 219.12762947133444 740.2324982010326 -0.00580884623116689 -0.02445088681116108 0.011413447201467688 0.0060023798777549915 7.022531655902464e-05 -0.0011896941861512089 0.005746409318649156 0.014726659569076237 -0.004927488264298701 0.0 0.0 0.0 0.00964121013955058 -0.0005421929095018321 0.02041181504596055 -0.036530575431747654 -0.04144337384966523 -0.06580598492567642 0.010100621562971486 -0.0023256861408654924 0.015441097600266166 0.0 0.0 0.0 -0.0043395845127190006 0.000829561223843132 0.007365183662552039 0.011597200733440016 -0.0035885338915617976 -0.006497878357688537 -0.04968730537409231 -0.012290977511938793 -0.027114916225963306 0.0 0.0 0.0
367.2664074875247 219.06427150534347 740.7340040124777 -0.01317708510682919 -0.05718775285052981 0.012689369511269583 0.009821465299202605 -0.0002618818295495919 -0.001956007986166086 0.0060278627833551665 0.0036840771648616235 -0.004081334437029536 0.0 0.0 0.0 0.018984168006866548 -0.0013374137062041967 0.04234202787651843 -0.04342404864436981 -0.0586043828380216 -0.10200064974407878 -0.03642703658035927 0.0077879793014141415 -0.04226899287450807 0.0 0.0 0.0 -0.007790826208827987 0.0014379099664219351 0.010286308414499228 -0.017598118419754828 0.01292039783168607 -0.010789252621462285 0.03418331123440443 0.009911715155649764 0.04610392706966828 0.0 0.0 0.0
367.2645155084305 218.99793016956917 741.2422454487769 -0.020356753607215155 -0.0899353637699668 0.013252879632618966 0.013461623120977427 -0.0006292373172591818 -0.002687703792915483 0.006061997091885111 -0.008228220539041051 -0.003001461782573445 0.0 0.0 0.0 0.028249598401379746 -0.0021452281985346808 0.06421686940296636 -0.04959127744471542 -0.07478136162485075 -0.13645902923755596 -0.08459870562128267 0.01822544653404118 -0.10244069989709564 0.0 0.0 0.0 -0.011143768326129637 0.002028224948779233 0.013074413996740534 -0.048271753383911535 0.030003452618194773 -0.014591076488889292 0.12269358164401382 0.03316748556630313 0.12241825126929369 0.0 0.0 0.0
367.26647386333485 218.9274647199401 741.7607930389458 -0.027507189249196366 -0.12283949640122675 0.013131330339628117 0.016887417715073256 -0.0010302141289625546 -0.003377708394576495 0.005828921781411716 -0.021272956497766716 -0.0016512289725917016 0.0 0.0 0.0 0.03739936952694429 -0.002960294542962628 0.08593070904270814 -0.05437223595642309 -0.08951174585500336 -0.16873068275527242 -0.1352206920564347 0.029159326066769815 -0.16620472492956986 0.0 0.0 0.0 -0.01439156983636084 0.0025984153685772392 0.01567486825477018 -0.08073166576345313 0.04782308920262734 -0.017916901184535327 0.2173910979072827 0.05783994556618558 0.202737905976714 0.0 0.0 0.0
367.2720672068366 218.85170507701244 742.2935396409757 -0.034818634023580215 -0.15607705032234137 0.012393245734304092 0.02006755370547316 -0.0014602903429359422 -0.004019697254971568 0.005313640256626512 -0.0357119192007705 2.88007418796156e-06 0.0 0.0 0.0 0.04639775721378686 -0.0037761289262338332 0.10737318812854052 -0.05705646663814226 -0.10232727820326723 -0.19840866940872262 -0.18915316972438975 0.040768137242505637 -0.23472864900877977 0.0 0.0 0.0 -0.017528049842066944 0.0031464378261725286 0.01803004519885592 -0.11527605984503146 0.0665480256830782 -0.020811955512585693 0.31983774185153446 0.08428780390556385 0.2879938229132429 0.0 0.0 0.0
367.28085746900734 218.7694824140891 742.8445937682386 -0.04251055485372794 -0.18985284707331257 0.011152341022088301 0.022975650520445066 -0.0019118030849036734 -0.004608241807199859 0.00450728177111431 -0.051796329025149634 0.001989601219635856 0.0 0.0 0.0 0.05521187073955147 -0.004585057764190847 0.12842951703719405 -0.05689642449732407 -0.11276567386301112 -0.22514389611417981 -0.24728813949703984 0.053230585459325984 -0.3091852793905701 0.0 0.0 0.0 -0.020547464148902888 0.0036702795096849915 0.020080391205187637 -0.15218012085088903 0.08634715996533902 -0.023355295812824705 0.43155809462065386 0.1128508301864648 0.3791059512042527 0.0 0.0 0.0
367.2921649067005 218.67965827000498 743.4181747851919 -0.050829336942344476 -0.22439641524060105 0.009570588993418606 0.025590931778671663 -0.002373758342216442 -0.005138941354091138 0.003408404362557243 -0.0697569302588851 0.004331164795001604 0.0 0.0 0.0 0.06381219763998895 -0.005378207349054763 0.1489812592902749 -0.05312284869231929 -0.12038310080716472 -0.24865901885342226 -0.3105261406586194 0.06671961704541854 -0.390721283608159 0.0 0.0 0.0 -0.023444358059850783 0.004167958197771279 0.021765731740680288 -0.191683069851669 0.10738327589612315 -0.025660943625869306 0.5539881447471763 0.14383606472849278 0.47695079691939535 0.0 0.0 0.0
367.30505454732446 218.5811510037608 744.0185142616704 -0.06004537236393764 -0.2599589292847684 0.007860149053116933 0.027898808889452065 -0.002831672504698633 -0.005608534910306381 0.002024301061740836 -0.08979413138033678 0.0070415713158711556 0.0 0.0 0.0 0.07217326512752298 -0.006145531067581685 0.16890759749613257 -0.04496190925666505 -0.12476714134411687 -0.2687614132752044 -0.3797524628379046 0.081396461606502 -0.4804271988388817 0.0 0.0 0.0 -0.026213491554026306 0.0046375380827189516 0.02302679551376947 -0.2339760441749949 0.12980674421073915 -0.027877867581422758 0.6884260593397784 0.17750483763251412 0.5823295488547612 0.0 0.0 0.0
